<svg width="150" height="150" xmlns="http://www.w3.org/2000/svg">

 <g>
  <title>background</title>
  <rect fill="none" id="canvas_background" height="152" width="152" y="-1" x="-1"/>
 </g>
 <g>
  <title>Add house</title>
  <g stroke="null" id="svg_1">
   <path stroke="null" fill="#3f51b5" id="svg_2" d="m94.469818,79.547954c1.591232,0 2.882666,-1.290438 2.882666,-2.880442s-1.291435,-2.880442 -2.882666,-2.880442l-40.35733,0c-1.591232,0 -2.882666,1.290438 -2.882666,2.880442l0,40.326193c0,1.590004 1.291435,2.880442 2.882666,2.880442l17.295998,0c1.591232,0 2.882666,-1.290438 2.882666,-2.880442s-1.291435,-2.880442 -2.882666,-2.880442l-14.413332,0l0,-34.565309c0,0 37.474663,0 37.474663,0z"/>
   <path stroke="null" fill="#3f51b5" id="svg_3" d="m85.821818,137.156802l-57.653328,0l0,-66.250175c0,-1.590004 -1.291435,-2.880442 -2.882666,-2.880442l-10.337242,0l56.459904,-56.422105c1.522048,-1.520874 4.231754,-1.526634 5.759567,0l21.026169,21.009947c0.830208,0.823807 2.063989,1.083046 3.142106,0.622176c1.078117,-0.437827 1.781488,-1.49783 1.781488,-2.655768l0,-20.163097l17.295998,0l0,43.206636c0,0.766198 0.299797,1.49783 0.841739,2.039353l12.372404,12.362859l-10.337242,0c-1.591232,0 -2.882666,1.290438 -2.882666,2.880442l0,2.880442c0,1.590004 1.291435,2.880442 2.882666,2.880442s2.882666,-1.290438 2.882666,-2.880442l14.413332,0c1.164597,0 2.219653,-0.702828 2.663584,-1.780113c0.449696,-1.077285 0.201787,-2.315876 -0.622656,-3.139682l-16.45426,-16.441565l0,-44.900336c0,-1.590004 -1.291435,-2.880442 -2.882666,-2.880442l-23.061331,0c-1.591232,0 -2.882666,1.290438 -2.882666,2.880442l0,16.090151l-16.102575,-16.090151c-3.707109,-3.71001 -10.187343,-3.715771 -13.911748,0l-61.383499,61.341901c-0.824443,0.823807 -1.072352,2.062397 -0.622656,3.139682c0.443931,1.077285 1.498987,1.780113 2.663584,1.780113l14.413332,0l0,66.250175c0,1.590004 1.291435,2.880442 2.882666,2.880442l60.535995,0c1.591232,0 2.882666,-1.290438 2.882666,-2.880442s-1.291435,-2.880442 -2.882666,-2.880442z"/>
   <path stroke="null" fill="#3f51b5" id="svg_4" d="m111.771581,79.547954c-17.486254,0 -31.70933,14.212103 -31.70933,31.684866s14.223076,31.684866 31.70933,31.684866s31.70933,-14.212103 31.70933,-31.684866s-14.223076,-31.684866 -31.70933,-31.684866zm0,57.608848c-14.303791,0 -25.943998,-11.631226 -25.943998,-25.923981s11.640207,-25.923981 25.943998,-25.923981c14.309556,0 25.943998,11.631226 25.943998,25.923981s-11.640207,25.923981 -25.943998,25.923981z"/>
   <path stroke="null" fill="#3f51b5" id="svg_5" d="m123.302247,108.352378l-8.647999,0l0,-8.641327c0,-1.590004 -1.291435,-2.880442 -2.882666,-2.880442s-2.882666,1.290438 -2.882666,2.880442l0,8.641327l-8.647999,0c-1.591232,0 -2.882666,1.290438 -2.882666,2.880442s1.291435,2.880442 2.882666,2.880442l8.647999,0l0,8.641327c0,1.590004 1.291435,2.880442 2.882666,2.880442c1.596997,0 2.882666,-1.290438 2.882666,-2.880442l0,-8.641327l8.647999,0c1.596997,0 2.882666,-1.290438 2.882666,-2.880442s-1.291435,-2.880442 -2.882666,-2.880442z"/>
  </g>
  <polyline stroke-linecap="round" id="svg_8" points="73.32366561889648,43.02845096588135 73.32366561889648,43.02845096588135 73.32366561889648,43.02845096588135 " stroke-opacity="null" stroke-width="null" stroke="null" fill="none"/>
  <polyline stroke-linecap="round" id="svg_10" points="58.82371807098389,44.52844524383545 58.82371807098389,44.46594524383545 " stroke-opacity="null" stroke-width="null" stroke="null" fill="none"/>
  <path d="m57.511224,49.090928c0,-0.062499 0,-0.124999 0.249999,-0.687497l0.812497,-1.499994" id="svg_12" stroke-opacity="null" stroke-width="null" stroke="null" fill="none"/>
 </g>
</svg>